<svg id="Layer_1" data-name="Layer 1" xmlns="http://www.w3.org/2000/svg" viewBox="0 0 184.76 48.72"><defs><style>.cls-1{fill:#8aafd0;}.cls-2{fill:#2d7061;}</style></defs><title>logo</title><path class="cls-1" d="M113.22,48.32H109V47.84h5.75v0.47h-0.83V52.8h-0.71v-3H111a0.93,0.93,0,0,0-.71.29,1,1,0,0,0-.27.72,1,1,0,0,0,.27.72,0.94,0.94,0,0,0,.71.28,1,1,0,0,0,.72-0.29A1,1,0,0,0,112,50.8a0.92,0.92,0,0,0-.49-0.84h0.85a1.66,1.66,0,0,1,.26.88,1.53,1.53,0,0,1-.49,1.13,1.59,1.59,0,0,1-1.15.48,1.51,1.51,0,0,1-1.11-.48A1.6,1.6,0,0,1,111,49.22h2.23V48.32Z" transform="translate(-4.23 -4.15)"/><path class="cls-1" d="M113.54,47.53a0.79,0.79,0,0,0-.5.36,2.19,2.19,0,0,1-.76-0.69,4,4,0,0,0-.59-0.69,2.32,2.32,0,0,0-1.2-.4l0.5-.44a2.14,2.14,0,0,1,1.07.42,6,6,0,0,1,.67.72A3.09,3.09,0,0,0,113.54,47.53Z" transform="translate(-4.23 -4.15)"/><path class="cls-1" d="M119,48.32h-0.81V52.8h-0.75v-1a1.33,1.33,0,0,1-.57.26h-0.39a1.34,1.34,0,0,1-1.5-1.51V48.32h-0.45V47.84H119v0.47Zm-1.57,2.39V48.32h-1.74v2.33a0.7,0.7,0,0,0,.77.8Q117.43,51.45,117.43,50.71Z" transform="translate(-4.23 -4.15)"/><path class="cls-1" d="M120.73,48.32h-0.8v4.49h-0.71V48.32H118.8V47.84h1.94v0.47Z" transform="translate(-4.23 -4.15)"/><path class="cls-1" d="M127,48.32h-0.79v4.46H125.5v-3a1.16,1.16,0,0,0-.83.36,1.14,1.14,0,0,0-.35.83,1.19,1.19,0,0,0,.1.48L123.67,51a2.28,2.28,0,0,1,.09-0.7,1.1,1.1,0,0,0-1-.61,1.17,1.17,0,0,0-.85.34,1.2,1.2,0,0,0,0,1.69,1.17,1.17,0,0,0,.85.34,1.12,1.12,0,0,0,.89-0.42v0.84a1.87,1.87,0,0,1-.93.26,1.74,1.74,0,0,1-1.3-.58,1.86,1.86,0,0,1-.55-1.32,1.72,1.72,0,0,1,.56-1.28,1.84,1.84,0,0,1,1.32-.53,1.8,1.8,0,0,1,1.28.5v0.3a1.75,1.75,0,0,1,1.5-.8V48.32h-5V47.84H127v0.47Z" transform="translate(-4.23 -4.15)"/><path class="cls-1" d="M134.56,48.32h-3.61v0.81a1.76,1.76,0,0,1,1.14-.41,1.79,1.79,0,0,1,1.31.54,1.76,1.76,0,0,1,.55,1.29,1.94,1.94,0,0,1-.54,1.35,1.68,1.68,0,0,1-1.29.59,1.81,1.81,0,0,1-.82-0.2V51.46a1.1,1.1,0,0,0,.77.32,1.12,1.12,0,0,0,.83-0.36,1.16,1.16,0,0,0,.36-0.83,1.09,1.09,0,0,0-.35-0.8,1.13,1.13,0,0,0-.81-0.34,1.23,1.23,0,0,0-.76.29,0.91,0.91,0,0,0-.38.7V52.8h-0.71V52.08a1.76,1.76,0,0,1-1.14.41,1.86,1.86,0,0,1-1.85-1.84,1.92,1.92,0,0,1,.54-1.34,1.69,1.69,0,0,1,1.29-.58A1.84,1.84,0,0,1,130,49v0.9a1.07,1.07,0,0,0-.87-0.42,1.12,1.12,0,0,0-.83.35,1.14,1.14,0,0,0-.34.83,1.11,1.11,0,0,0,.33.83,1.24,1.24,0,0,0,1.65,0,1,1,0,0,0,.33-0.79V48.32h-3.41V47.84h7.73v0.47Z" transform="translate(-4.23 -4.15)"/><path class="cls-1" d="M136.27,48.32h-0.8v4.49h-0.71V48.32h-0.42V47.84h1.94v0.47Z" transform="translate(-4.23 -4.15)"/><path class="cls-1" d="M135.09,47.53a0.79,0.79,0,0,0-.5.36,2.19,2.19,0,0,1-.76-0.69,4,4,0,0,0-.59-0.69,2.32,2.32,0,0,0-1.2-.4l0.5-.44a2.14,2.14,0,0,1,1.07.42,6,6,0,0,1,.67.72A3.09,3.09,0,0,0,135.09,47.53Z" transform="translate(-4.23 -4.15)"/><path class="cls-1" d="M143,47.84a1.87,1.87,0,0,0-3.13,0h0.73v0.47h-0.81v4.47H139.1V48.32h-0.45V47.84h0.47a2.54,2.54,0,0,1,2.31-1.45,2.53,2.53,0,0,1,1.37.39,2.46,2.46,0,0,1,.94,1.07H143Z" transform="translate(-4.23 -4.15)"/><path class="cls-1" d="M144.52,48.32H143.7v1.17h-1.81a0.23,0.23,0,0,0-.28.23q0,0.22.4,0.26h0.55A1.28,1.28,0,0,1,144,51.41a1.32,1.32,0,0,1-.49,1,1.69,1.69,0,0,1-1.13.42,1.72,1.72,0,0,1-1.2-.45,1.49,1.49,0,0,1-.5-1.15s0-.12,0-0.23h0.7v0.19a1,1,0,0,0,.3.72,1,1,0,0,0,.71.3,0.9,0.9,0,0,0,.66-0.26,0.89,0.89,0,0,0,.26-0.66,0.62,0.62,0,0,0-.52-0.65,4.92,4.92,0,0,0-.93-0.05,1.06,1.06,0,0,1-.67-0.21,0.73,0.73,0,0,1-.31-0.62,0.86,0.86,0,0,1,1-.93H143V48.32h-2.6V47.84h4.11v0.47Z" transform="translate(-4.23 -4.15)"/><path class="cls-1" d="M148.67,47.84a1.87,1.87,0,0,0-3.13,0h0.73v0.47h-0.81v4.47h-0.71V48.32H144.3V47.84h0.47a2.54,2.54,0,0,1,2.31-1.45,2.53,2.53,0,0,1,1.37.39,2.46,2.46,0,0,1,.94,1.07h-0.71Z" transform="translate(-4.23 -4.15)"/><path class="cls-1" d="M151.6,48.32h-0.89v4.47H150V49.7h-1.06a1.86,1.86,0,0,1,.38,1.13,1.9,1.9,0,0,1-1.92,1.91,1.91,1.91,0,0,1-1.09-.32V51.08a1,1,0,0,0,.37.65,1.08,1.08,0,0,0,.71.26,1.2,1.2,0,0,0,1.16-1.16,1.15,1.15,0,0,0-.31-0.76,0.91,0.91,0,0,0-.7-0.36h-0.7V49.14H150V48.32h-3.9V47.84h5.5v0.47Z" transform="translate(-4.23 -4.15)"/><path class="cls-1" d="M156,48.32h-1.24v2.1h-0.06a1.09,1.09,0,0,0-1.1-.77,1.19,1.19,0,0,0-.87.34,1.23,1.23,0,0,0,0,1.7,1.18,1.18,0,0,0,2-.85h0.75a1.84,1.84,0,0,1-.57,1.37,1.9,1.9,0,0,1-1.38.56,1.92,1.92,0,0,1-1.92-1.93,1.89,1.89,0,0,1,.56-1.36,1.81,1.81,0,0,1,1.35-.57A1.92,1.92,0,0,1,154,49V48.32h-2.69V47.84H156v0.47Z" transform="translate(-4.23 -4.15)"/><path class="cls-1" d="M162.27,48.32h-0.79v4.46h-0.71v-3a1.16,1.16,0,0,0-.83.36,1.14,1.14,0,0,0-.35.83,1.19,1.19,0,0,0,.1.48L158.93,51a2.28,2.28,0,0,1,.09-0.7,1.1,1.1,0,0,0-1-.61,1.17,1.17,0,0,0-.85.34,1.2,1.2,0,0,0,0,1.69,1.17,1.17,0,0,0,.85.34,1.12,1.12,0,0,0,.89-0.42v0.84a1.87,1.87,0,0,1-.93.26,1.74,1.74,0,0,1-1.3-.58,1.86,1.86,0,0,1-.55-1.32,1.72,1.72,0,0,1,.56-1.28,1.84,1.84,0,0,1,1.32-.53,1.8,1.8,0,0,1,1.28.5v0.3a1.75,1.75,0,0,1,1.5-.8V48.32h-5V47.84h6.47v0.47Z" transform="translate(-4.23 -4.15)"/><path class="cls-1" d="M169.12,48.32H168.3V52.8h-0.75v-1a1.33,1.33,0,0,1-.57.26h-0.39a1.34,1.34,0,0,1-1.5-1.51V48.32h-0.45V47.84h4.48v0.47Zm-1.57,2.39V48.32h-1.74v2.33a0.7,0.7,0,0,0,.77.8Q167.55,51.45,167.55,50.71Z" transform="translate(-4.23 -4.15)"/><path class="cls-1" d="M173.27,47.84a1.87,1.87,0,0,0-3.13,0h0.73v0.47h-0.81v4.47h-0.71V48.32h-0.45V47.84h0.47a2.54,2.54,0,0,1,2.31-1.45,2.53,2.53,0,0,1,1.37.39,2.46,2.46,0,0,1,.94,1.07h-0.71Z" transform="translate(-4.23 -4.15)"/><path class="cls-1" d="M175.91,48.32H175v4.47h-0.67v-2l-2.4,2h-1l2.36-2a1.09,1.09,0,0,0-.38-0.62,1,1,0,0,0-.69-0.25,1,1,0,0,0-1,.83V49.59a1.69,1.69,0,0,1,1-.31,1.74,1.74,0,0,1,1,.29,1.78,1.78,0,0,1,.66.78l0.48-.4V48.32h-3.75V47.84h5.3v0.47Z" transform="translate(-4.23 -4.15)"/><path class="cls-1" d="M183.38,48.32h-3.61v0.81a1.76,1.76,0,0,1,1.14-.41,1.79,1.79,0,0,1,1.31.54,1.76,1.76,0,0,1,.55,1.29,1.94,1.94,0,0,1-.54,1.35,1.68,1.68,0,0,1-1.29.59,1.81,1.81,0,0,1-.82-0.2V51.46a1.1,1.1,0,0,0,.77.32,1.12,1.12,0,0,0,.83-0.36,1.16,1.16,0,0,0,.36-0.83,1.09,1.09,0,0,0-.35-0.8,1.13,1.13,0,0,0-.81-0.34,1.23,1.23,0,0,0-.76.29,0.91,0.91,0,0,0-.38.7V52.8h-0.71V52.08a1.76,1.76,0,0,1-1.14.41,1.86,1.86,0,0,1-1.85-1.84,1.92,1.92,0,0,1,.54-1.34,1.69,1.69,0,0,1,1.29-.58,1.84,1.84,0,0,1,.91.25v0.9a1.07,1.07,0,0,0-.87-0.42,1.12,1.12,0,0,0-.83.35,1.14,1.14,0,0,0-.34.83,1.11,1.11,0,0,0,.33.83,1.24,1.24,0,0,0,1.65,0,1,1,0,0,0,.33-0.79V48.32h-3.41V47.84h7.73v0.47Z" transform="translate(-4.23 -4.15)"/><path class="cls-1" d="M185.1,48.32h-0.8v4.49h-0.71V48.32h-0.42V47.84h1.94v0.47Z" transform="translate(-4.23 -4.15)"/><ellipse class="cls-1" cx="13.55" cy="7.9" rx="5.92" ry="5.23"/><ellipse class="cls-2" cx="28.23" cy="6.12" rx="5.92" ry="5.23"/><path class="cls-1" d="M17.65,32.66s-4.25,8.62-2.22,13.27c0,0-5.19-6.17-2.47-16.56a14.32,14.32,0,0,1,.69-2.46s0-1.43-.71-0.27c0,0-2.38,4.43-5.47,5.17a14.08,14.08,0,0,1-2.6.67s-1.43,0,0-.59a13.75,13.75,0,0,0,4.55-6.45,10.93,10.93,0,0,1,6.13-6.87c5.07-2.27,7.07.15,7.79,0.25,0,0,2.62,2.69,2.52,4,0,0-.72,2.13-1.61,2.62,0,0-2.1-2.5-2.37-.84A4,4,0,0,0,23,26.77s2.05,4.75,1.66,9c0,0,0,7.07-1.41,8.7,0,0-2.08,3-1.41,1,0,0,1.11-4.6-.27-7.86C21.58,37.67,19.9,32.54,17.65,32.66Z" transform="translate(-4.23 -4.15)"/><path class="cls-2" d="M21.75,27.84s3.78-2.64,4.45-5.66c0,0,2.18-5.51,5.81-6,0,0,3.16-1.75,6.55,2.4,0,0,2.34,3.4,3.42,5.43,0,0,4.75,7.21-1.92,1.56,0,0-1.7-3.68-3-1.24,0,0-.15,5.07,3.14,8.25,0,0,.79.49-0.57,0.49l-1.38.2a11.62,11.62,0,0,1-.8,12.09S36,47.51,36.62,45c0,0,.85-9.29-1.94-11.31,0,0-2.2-.63-2.69.36,0,0-2,4.2-1.31,11.22,0,0,1,3.56-.91-1.09,0,0-3.16-5.37-.84-10.25,0,0-.94-0.43-3.71.11,0,0-1,.5.3-0.84,0,0,3.11-3.58,3.71-6.31,0,0,1-2.78-1.78-.46,0,0-3.06,2.32-5.68,2C21.75,28.48,21.09,28.34,21.75,27.84Z" transform="translate(-4.23 -4.15)"/><path class="cls-2" d="M85,18.85H80.58V43.74H76.74V32.3H69.36V30.35a9.83,9.83,0,0,1-7.15,5.72l9,7.66h-6L51.4,31.84,54,29.06q2.59,2.26,2.76,2.38A5.74,5.74,0,0,0,60,32.58a6,6,0,0,0,4.63-1.89,6.83,6.83,0,0,0,1.73-4.81,7.46,7.46,0,0,0-3.88-7H49.57V16.22H85v2.63Zm-8.3,0H67.59a9.39,9.39,0,0,1,2.63,7,11.86,11.86,0,0,1-.4,3.09h6.92V18.85Z" transform="translate(-4.23 -4.15)"/><path class="cls-2" d="M78.12,14.5a4.41,4.41,0,0,0-2.8,2,12.14,12.14,0,0,1-4.23-3.83,22.14,22.14,0,0,0-3.26-3.83,12.88,12.88,0,0,0-6.69-2.23l2.8-2.46a11.89,11.89,0,0,1,6,2.35,33.27,33.27,0,0,1,3.72,4A17.15,17.15,0,0,0,78.12,14.5Z" transform="translate(-4.23 -4.15)"/><path class="cls-2" d="M85.1,33.07a10.75,10.75,0,0,1,3.18-7.86A10.48,10.48,0,0,1,96,22a10.7,10.7,0,0,1,6.81,2.35V18.85H83.55V16.22h27.29v2.63h-4.29V43.68h-3.72V31.09q0-1.83-2.52-3.78a6.81,6.81,0,0,0-9.24.69,7,7,0,0,0-2.15,5.05A6.56,6.56,0,0,0,91,38a6.94,6.94,0,0,0,5,2L96,44A11,11,0,0,1,85.1,33.07Z" transform="translate(-4.23 -4.15)"/><path class="cls-2" d="M120.68,18.85h-4.46V43.8h-3.95V18.85h-2.35V16.22h10.76v2.63Z" transform="translate(-4.23 -4.15)"/><path class="cls-2" d="M114.1,14.5a4.41,4.41,0,0,0-2.8,2,12.15,12.15,0,0,1-4.23-3.83,22.14,22.14,0,0,0-3.26-3.83,12.88,12.88,0,0,0-6.69-2.23l2.8-2.46a11.89,11.89,0,0,1,6,2.35,33.27,33.27,0,0,1,3.72,4A17.15,17.15,0,0,0,114.1,14.5Z" transform="translate(-4.23 -4.15)"/><path class="cls-2" d="M144.43,18.85h-4.52V43.74h-4.18V38.3a7.39,7.39,0,0,1-3.15,1.43h-2.17q-8.3,0-8.35-8.41V18.85h-2.52V16.22h24.89v2.63Zm-8.7,13.27V18.85h-9.67V31.78q0,4.46,4.29,4.46Q135.73,36.24,135.73,32.12Z" transform="translate(-4.23 -4.15)"/><path class="cls-2" d="M154.09,18.85h-4.46V43.8h-3.95V18.85h-2.35V16.22h10.76v2.63Z" transform="translate(-4.23 -4.15)"/><path class="cls-2" d="M178.81,18.85h-6.87V30.52l-0.34.06a6,6,0,0,0-6.12-4.29,6.63,6.63,0,0,0-4.81,1.89,6.34,6.34,0,0,0-1.95,4.75,6.36,6.36,0,0,0,1.88,4.72,6.58,6.58,0,0,0,11.34-4.72h4.18A10.25,10.25,0,0,1,173,40.53a10.53,10.53,0,0,1-7.67,3.09,10.65,10.65,0,0,1-10.64-10.7,10.49,10.49,0,0,1,3.09-7.58,10.07,10.07,0,0,1,7.5-3.18,10.62,10.62,0,0,1,2.69.34V18.85H153V16.22h25.8v2.63Z" transform="translate(-4.23 -4.15)"/><path class="cls-2" d="M180.53,16.22a5.79,5.79,0,0,0-2.12-3.29,6,6,0,0,0-9.61,3.4l-3.6-.11a8.93,8.93,0,0,1,3.16-5.81,9.63,9.63,0,0,1,6.37-2.2,9.43,9.43,0,0,1,6.28,2.2,9.22,9.22,0,0,1,3.18,5.81H189v2.63h-4.81V43.68h-3.95V18.85h-3.66V16.22h3.95Z" transform="translate(-4.23 -4.15)"/><path class="cls-2" d="M13.4,19.82a7.33,7.33,0,0,1,.24,6.81s-0.83,3.3-.92,3.73L13.31,31l4.4-.11,0.61-1,0.65,1,4.33-.12,0.81-.67L23,26.77a3.43,3.43,0,0,1-1.14-2.15,0.58,0.58,0,0,1,.34-0.54s-0.73-3.87,1.12-5.27l-0.09.07a6.56,6.56,0,0,0-2.14-1.07s-1.72,2.06-2.46,3l-2.36-2.6A28.44,28.44,0,0,0,13.4,19.82Z" transform="translate(-4.23 -4.15)"/><circle class="cls-1" cx="14.35" cy="19.95" r="0.57"/><circle class="cls-1" cx="14.35" cy="22.89" r="0.57"/><path class="cls-1" d="M26.58,9.67S29.45,10,32.67,7.26a12.31,12.31,0,0,0,5.68,2.41S38,5.43,32.67,5C32.67,5,27.59,4.81,26.58,9.67Z" transform="translate(-4.23 -4.15)"/><path class="cls-1" d="M28.69,14.29a3,3,0,0,0,1.49,2.26,1.37,1.37,0,0,1,.33,1.14,3.14,3.14,0,0,1-.27.69,1.67,1.67,0,0,0-.35,1.71,3,3,0,0,0,1,.79L31,20.56a1.1,1.1,0,0,1-.8-1.24s0.22-.45.51-1a1.78,1.78,0,0,0,0-1.58A1.43,1.43,0,0,0,30.21,16a2,2,0,0,1-.35-1Z" transform="translate(-4.23 -4.15)"/><path class="cls-1" d="M29.29,15.71A2.35,2.35,0,0,0,30.38,18a1.14,1.14,0,0,1,.39,1.52s-0.39.4-.42,0.45l-0.13.11,0.17,0.23a1.81,1.81,0,0,0,.83-1.91,1.9,1.9,0,0,0-.72-0.84,2.44,2.44,0,0,1-.71-1.37Z" transform="translate(-4.23 -4.15)"/><path class="cls-1" d="M30.37,15.17A5.15,5.15,0,0,1,30,16.92a1.41,1.41,0,0,0-.44,1.49,3,3,0,0,0,1,.92,1.24,1.24,0,0,1,.29,1.54l-0.23.22s-0.17.3,0.19,0.23a1.44,1.44,0,0,0,.39-1.65,6,6,0,0,0-1-1.18s-0.71-.31.05-1.26a7.23,7.23,0,0,0,1.12-1.82Z" transform="translate(-4.23 -4.15)"/><path class="cls-1" d="M29.8,21.11a0.37,0.37,0,0,1,.54.12,0.75,0.75,0,0,0,.83,0s0.61-.39.69,0c0,0,0,1.17-.42.88a0.8,0.8,0,0,0-1,0s-0.54.35-.63-0.18A1.78,1.78,0,0,1,29.8,21.11Z" transform="translate(-4.23 -4.15)"/><path class="cls-2" d="M30,21.69s-0.06-.35.17-0.31a1.22,1.22,0,0,1,.4.17s0.09,0.24-.32.32C30.23,21.87,30,21.88,30,21.69Z" transform="translate(-4.23 -4.15)"/><path class="cls-2" d="M31.6,21.58s0-.23-0.13-0.21a0.71,0.71,0,0,0-.36.1s-0.1.24,0.33,0.32A0.19,0.19,0,0,0,31.6,21.58Z" transform="translate(-4.23 -4.15)"/><path class="cls-2" d="M30.73,21.78a0.23,0.23,0,0,1-.09-0.28,0.2,0.2,0,0,1,.33,0S31,21.89,30.73,21.78Z" transform="translate(-4.23 -4.15)"/><path class="cls-1" d="M30.72,21.93s-0.17.1,0,.46a0.6,0.6,0,0,0,.08.42,1.52,1.52,0,0,1,.11.31A2,2,0,0,1,31,22.79v0a0.27,0.27,0,0,0,0-.26,0.24,0.24,0,0,0,0-.23,1.71,1.71,0,0,0,0-.26A0.32,0.32,0,0,0,30.72,21.93Z" transform="translate(-4.23 -4.15)"/></svg>